# Aspose.3D Wavefront OBJ Exporter
# Copyright 2004-2022 Aspose Pty Ltd.
# File created: 04/28/2022 09:28:30


#
# object obj_16932006
#

v 43379.92578125 14195.4580078125 0
v 45575.84765625 2484.2080078125 7195
v 45575.84765625 2484.2080078125 0
v 43379.92578125 14195.4580078125 7195
v 38227.73828125 24939.310546875 0
v 38227.73828125 24939.310546875 7195
v 30470.390625 33983.58984375 0
v 30470.390625 33983.58984375 7195
v 20636.53515625 40711.9453125 7195
v 20636.53515625 40711.9453125 0
v 9396.3359375 44665.84765625 7195
v 9396.3359375 44665.84765625 0
v -2484.2080078125 45575.84765625 7195
v -2484.2080078125 45575.84765625 0
v -14195.4580078125 43379.92578125 7195
v -14195.4580078125 43379.92578125 0
v -24939.310546875 38227.73828125 7195
v -24939.310546875 38227.73828125 0
v -33983.58984375 30470.390625 7195
v -33983.58984375 30470.390625 0
v -40711.9453125 20636.53515625 0
v -40711.9453125 20636.53515625 7195
v -44665.84765625 9396.3359375 0
v -44665.84765625 9396.3359375 7195
v -45575.84765625 -2484.2080078125 0
v -45575.84765625 -2484.2080078125 7195
v -43379.92578125 -14195.4580078125 0
v -43379.92578125 -14195.4580078125 7195
v -38227.73828125 -24939.310546875 0
v -38227.73828125 -24939.310546875 7195
v -30470.390625 -33983.58984375 0
v -30470.390625 -33983.58984375 7195
v -20636.53515625 -40711.9453125 7195
v -20636.53515625 -40711.9453125 0
v -9396.3359375 -44665.84765625 7195
v -9396.3359375 -44665.84765625 0
v 2484.2080078125 -45575.84765625 7195
v 2484.2080078125 -45575.84765625 0
v 14195.4580078125 -43379.92578125 7195
v 14195.4580078125 -43379.92578125 0
v 24939.310546875 -38227.73828125 7195
v 24939.310546875 -38227.73828125 0
v 33983.58984375 -30470.390625 7195
v 33983.58984375 -30470.390625 0
v 40711.9453125 -20636.53515625 0
v 40711.9453125 -20636.53515625 7195
v 44665.84765625 -9396.3359375 0
v 44665.84765625 -9396.3359375 7195
# 48 vertices

vn 0.9828712940216064 0.18429343402385712 0
vn 0.90168207883834832 0.43239957094192504 0
vn 0.7590447664260864 0.65103840827941896 0
vn 0.5646798014640808 0.82531005144119264 0
vn 0.33183285593986512 0.9433382153511048 0
vn 0.07637201994657516 0.99707937240600592 0
vn -0.18429343402385712 0.9828712940216064 0
vn -0.43239957094192504 0.90168207883834832 0
vn -0.65103840827941896 0.7590447664260864 0
vn -0.82531005144119264 0.5646798014640808 0
vn -0.9433382153511048 0.33183285593986512 0
vn -0.99707937240600592 0.07637201994657516 0
vn -0.9828712940216064 -0.18429343402385712 0
vn -0.90168207883834832 -0.43239957094192504 0
vn -0.7590447664260864 -0.65103840827941896 0
vn -0.5646798014640808 -0.82531005144119264 0
vn -0.33183285593986512 -0.9433382153511048 0
vn -0.07637201994657516 -0.99707937240600592 0
vn 0.18429343402385712 -0.9828712940216064 0
vn 0.43239957094192504 -0.90168207883834832 0
vn 0.65103840827941896 -0.7590447664260864 0
vn 0.82531005144119264 -0.5646798014640808 0
vn 0.9433382153511048 -0.33183285593986512 0
vn 0.99707937240600592 -0.07637201994657516 0
# 24 vertex normals

g obj_16932006
s 1
f 1//1 2//1 3//1
f 2//1 1//1 4//1
f 5//2 4//2 1//2
f 4//2 5//2 6//2
f 7//3 6//3 5//3
f 6//3 7//3 8//3
f 9//4 7//4 10//4
f 7//4 9//4 8//4
f 11//5 10//5 12//5
f 10//5 11//5 9//5
f 13//6 12//6 14//6
f 12//6 13//6 11//6
f 15//7 14//7 16//7
f 14//7 15//7 13//7
f 17//8 16//8 18//8
f 16//8 17//8 15//8
f 19//9 18//9 20//9
f 18//9 19//9 17//9
f 19//10 21//10 22//10
f 21//10 19//10 20//10
f 22//11 23//11 24//11
f 23//11 22//11 21//11
f 24//12 25//12 26//12
f 25//12 24//12 23//12
f 26//13 27//13 28//13
f 27//13 26//13 25//13
f 28//14 29//14 30//14
f 29//14 28//14 27//14
f 30//15 31//15 32//15
f 31//15 30//15 29//15
f 33//16 31//16 34//16
f 31//16 33//16 32//16
f 35//17 34//17 36//17
f 34//17 35//17 33//17
f 37//18 36//18 38//18
f 36//18 37//18 35//18
f 39//19 38//19 40//19
f 38//19 39//19 37//19
f 41//20 40//20 42//20
f 40//20 41//20 39//20
f 43//21 42//21 44//21
f 42//21 43//21 41//21
f 45//22 43//22 44//22
f 43//22 45//22 46//22
f 47//23 46//23 45//23
f 46//23 47//23 48//23
f 3//24 48//24 47//24
f 48//24 3//24 2//24
#48 polygons

